<?xml version="1.0" standalone="no"?>
<!DOCTYPE svg PUBLIC "-//W3C//DTD SVG 20010904//EN"
 "http://www.w3.org/TR/2001/REC-SVG-20010904/DTD/svg10.dtd">
<svg version="1.0" xmlns="http://www.w3.org/2000/svg"
 width="48.000000pt" height="48.000000pt" viewBox="0 0 48.000000 48.000000"
 preserveAspectRatio="xMidYMid meet">

<g transform="translate(0.000000,48.000000) scale(0.100000,-0.100000)"
fill="#000000" stroke="none">
<path d="M140 428 c-69 -37 -104 -94 -108 -176 -3 -56 0 -74 20 -112 37 -69
94 -104 176 -108 56 -3 74 0 112 20 69 37 104 94 108 176 3 56 0 74 -20 112
-37 69 -94 104 -176 108 -56 3 -74 0 -112 -20z m184 -64 c18 -18 21 -60 5 -70
-8 -4 -8 -9 0 -17 6 -6 11 -23 11 -39 0 -31 -36 -61 -67 -56 -14 2 -19 -4 -21
-27 -5 -42 -19 -55 -58 -55 -45 0 -51 16 -51 140 0 58 4 113 9 123 12 24 149
25 172 1z"/>
<path d="M174 335 c-8 -20 4 -35 27 -35 14 0 19 7 19 25 0 18 -5 25 -20 25
-11 0 -23 -7 -26 -15z"/>
<path d="M250 325 c0 -23 4 -26 28 -23 38 4 38 42 0 46 -24 3 -28 0 -28 -23z"/>
<path d="M174 255 c-9 -23 3 -45 26 -45 16 0 20 7 20 30 0 23 -4 30 -20 30
-11 0 -23 -7 -26 -15z"/>
<path d="M264 256 c-9 -24 4 -48 23 -44 24 4 24 52 0 56 -9 2 -20 -4 -23 -12z"/>
<path d="M174 165 c-8 -20 4 -35 27 -35 14 0 19 7 19 25 0 18 -5 25 -20 25
-11 0 -23 -7 -26 -15z"/>
</g>
</svg>
